<svg xmlns="http://www.w3.org/2000/svg" version="1.1" xmlns:xlink="http://www.w3.org/1999/xlink" xmlns:svgjs="http://svgjs.com/svgjs" width="800px" height="800px"><svg width="800px" height="800px" viewBox="0 -11.5 66 66" xmlns="http://www.w3.org/2000/svg">
  <g id="SvgjsG1025" data-name="Group 581" transform="translate(-87 -348.409)">
    <g id="SvgjsG1024" data-name="Group 499">
      <g id="SvgjsG1023" data-name="Group 492">
        <path id="SvgjsPath1022" data-name="Path 683" d="M142.625,357.409h2.415a3.96,3.96,0,0,0,3.96-3.96v-.08a3.96,3.96,0,0,0-3.96-3.96H93a5,5,0,0,0-5,5v13" fill="#29abe2"></path>
        <path id="SvgjsPath1021" data-name="Path 684" d="M89,367.409H87v-13a6.006,6.006,0,0,1,6-6h52.04a5,5,0,0,1,0,10h-2.415v-2h2.415a3,3,0,0,0,0-6H93a4,4,0,0,0-4,4Z"></path>
      </g>
      <g id="SvgjsG1020" data-name="Group 493">
        <path id="SvgjsPath1019" data-name="Path 685" d="M88,357.409v23a5.015,5.015,0,0,0,5,5h53.935a5.241,5.241,0,0,0,4.651-7.278l-8.961-20.722Z" fill="#29abe2"></path>
        <path id="SvgjsPath1018" data-name="Path 686" d="M146.936,386.409H93a6.007,6.007,0,0,1-6-6v-23a1,1,0,0,1,1-1h54.625a1,1,0,0,1,.918.6l8.961,20.723a6.249,6.249,0,0,1-.565,5.917A6,6,0,0,1,146.936,386.409ZM89,358.409v22a4,4,0,0,0,4,4h53.936a3.964,3.964,0,0,0,3.334-1.857,4.252,4.252,0,0,0,.4-4.025l-8.7-20.118Z"></path>
      </g>
      <rect id="SvgjsRect1017" data-name="Rectangle 42" width="62" height="2" transform="translate(88 374.409)"></rect>
      <g id="SvgjsG1016" data-name="Group 494">
        <circle id="SvgjsCircle1015" data-name="Ellipse 125" cx="3.975" cy="3.975" r="3.975" transform="translate(137.53 380.459)" fill="#29abe2"></circle>
        <path id="SvgjsPath1014" data-name="Path 687" d="M141.505,380.459a3.975,3.975,0,1,1-3.975,3.975,3.975,3.975,0,0,1,3.975-3.975m0-2a5.975,5.975,0,1,0,5.974,5.975,5.982,5.982,0,0,0-5.974-5.975Z"></path>
      </g>
      <path id="SvgjsPath1013" data-name="Path 688" d="M131,380.409h-3a1,1,0,0,1,0-2h3a1,1,0,0,1,0,2Z"></path>
      <path id="SvgjsPath1012" data-name="Path 689" d="M151,391.409H89a1,1,0,0,1,0-2h62a1,1,0,1,1,0,2Z"></path>
      <g id="SvgjsG1011" data-name="Group 495">
        <path id="SvgjsPath1010" data-name="Path 690" d="M148.674,371.409H135a2,2,0,0,1-2-2v-5a2,2,0,0,1,2-2h9.776Z" fill="#29abe2"></path>
        <path id="SvgjsPath1009" data-name="Path 691" d="M148.693,372.409a.059.059,0,0,1-.019,0H135a3,3,0,0,1-3-3v-5a3,3,0,0,1,3-3h9.776a1,1,0,0,1,.918.6l3.825,8.832a1,1,0,0,1-.826,1.566Zm-13.693-9a1,1,0,0,0-1,1v5a1,1,0,0,0,1,1h12.151l-3.031-7Z"></path>
      </g>
      <g id="SvgjsG1008" data-name="Group 496">
        <circle id="SvgjsCircle1007" data-name="Ellipse 126" cx="3.975" cy="3.975" r="3.975" transform="translate(102.53 380.459)" fill="#29abe2"></circle>
        <path id="SvgjsPath1006" data-name="Path 692" d="M106.5,380.459a3.975,3.975,0,1,1-3.975,3.975,3.975,3.975,0,0,1,3.975-3.975m0-2a5.975,5.975,0,1,0,5.974,5.975,5.982,5.982,0,0,0-5.974-5.975Z"></path>
      </g>
      <g id="SvgjsG1005" data-name="Group 497">
        <path id="SvgjsPath1004" data-name="Path 693" d="M118,362.409h4a2,2,0,0,1,2,2v21h-8v-21A2,2,0,0,1,118,362.409Z" fill="#29abe2"></path>
        <path id="SvgjsPath1003" data-name="Path 694" d="M124,386.409h-8a1,1,0,0,1-1-1v-21a3,3,0,0,1,3-3h4a3,3,0,0,1,3,3v21A1,1,0,0,1,124,386.409Zm-7-2h6v-20a1,1,0,0,0-1-1h-4a1,1,0,0,0-1,1Z"></path>
      </g>
      <g id="SvgjsG1002" data-name="Group 498">
        <rect id="SvgjsRect1001" data-name="Rectangle 43" width="20" height="9" rx="2" transform="translate(92 362.409)" fill="#29abe2"></rect>
        <path id="SvgjsPath1000" data-name="Path 695" d="M110,372.409H94a3,3,0,0,1-3-3v-5a3,3,0,0,1,3-3h16a3,3,0,0,1,3,3v5A3,3,0,0,1,110,372.409Zm-16-9a1,1,0,0,0-1,1v5a1,1,0,0,0,1,1h16a1,1,0,0,0,1-1v-5a1,1,0,0,0-1-1Z"></path>
      </g>
    </g>
  </g>
</svg><style>@media (prefers-color-scheme: light) { :root { filter: none; } }
</style></svg>